<svg width="57" height="43" viewBox="0 0 57 43" fill="none" xmlns="http://www.w3.org/2000/svg">
<path d="M47.44 3.63999C43.8311 1.89777 40.0356 0.715546 36.0533 0.0933228C35.9289 -0.0311203 35.8667 -0.0311203 35.8667 0.0933228C35.3689 0.964436 34.8711 1.95999 34.3733 3.07999C30.1422 2.33332 25.9111 2.33332 21.68 3.07999C21.1822 2.08443 20.6844 1.08888 20.1867 0.0933228C20.1867 -0.0311203 20.1244 -0.0311203 20 0.0933228C16.0178 0.715546 12.2222 1.89777 8.61333 3.63999C5.12889 8.86666 2.70222 14.2178 1.33333 19.6933C0.0888889 24.6711 -0.284444 29.96 0.213333 35.56H0.4C4.63111 38.7955 9.29778 41.16 14.4 42.6533C14.4 42.6533 14.4622 42.6533 14.5867 42.6533C15.5822 41.16 16.5156 39.6044 17.3867 37.9867C17.3867 37.8622 17.3867 37.8 17.3867 37.8H17.2C15.7067 37.1778 14.2756 36.4311 12.9067 35.56C12.7822 35.56 12.7822 35.4978 12.9067 35.3733L13.84 34.6267H14.0267C18.5067 36.7422 23.1733 37.8 28.0267 37.8C32.88 37.8 37.5467 36.7422 42.0267 34.6267C42.1511 34.6267 42.2133 34.6267 42.2133 34.6267L43.1467 35.3733V35.56C41.7778 36.4311 40.2844 37.1778 38.6667 37.8V37.9867C39.5378 39.6044 40.4711 41.16 41.4667 42.6533C41.5911 42.6533 41.6533 42.6533 41.6533 42.6533C46.7556 41.16 51.4222 38.7955 55.6533 35.56H55.84C56.96 23.9867 54.16 13.3467 47.44 3.63999ZM18.6933 29.2133C17.3244 29.2133 16.1422 28.6533 15.1467 27.5333C14.1511 26.4133 13.6533 25.0755 13.6533 23.52C13.6533 21.9644 14.1511 20.6267 15.1467 19.5067C16.1422 18.3867 17.3556 17.8267 18.7867 17.8267C20.2178 17.8267 21.4 18.3867 22.3333 19.5067C23.2667 20.6267 23.7333 21.9644 23.7333 23.52C23.7333 25.0755 23.2356 26.4133 22.24 27.5333C21.2444 28.6533 20.0622 29.2133 18.6933 29.2133ZM37.36 29.2133C35.9911 29.2133 34.8089 28.6533 33.8133 27.5333C32.8178 26.4133 32.32 25.0755 32.32 23.52C32.32 21.9644 32.8178 20.6267 33.8133 19.5067C34.8089 18.3867 35.9911 17.8267 37.36 17.8267C38.7289 17.8267 39.9111 18.3867 40.9067 19.5067C41.9022 20.6267 42.4 21.9644 42.4 23.52C42.4 25.0755 41.9022 26.4133 40.9067 27.5333C39.9111 28.6533 38.7289 29.2133 37.36 29.2133Z" fill="#131313"/>
</svg>
