<svg width="55" height="54" viewBox="0 0 55 54" fill="none" xmlns="http://www.w3.org/2000/svg">
<path d="M2 51.586V50.0961V48.192V45.6258L5.33334 43.639L8.5625 42.2319L12.3125 40.4933L15.6459 39.6655L18.6666 38.5067L20.3334 37.6788C20.3334 37.3753 20.3334 36.7185 20.3334 36.5198C20.3334 36.3211 20.3334 35.554 20.3334 35.1953L17.2084 34.0364L13.5625 32.298L10.3333 29.649L7.52084 26.5033L5.33334 22.5298V19.053V15.4933L6.375 11.2715L10.3333 6.4702L15.6459 3.57285L21.1666 2H26.1666H31.4791L38.7709 4.40067L43.1459 8.12582L47.1041 13.755V20.1291L45.9584 25.6755L42.1041 29.649L37 33.2086L32.8334 35.1953V36.5198L34.2916 38.5067L38.7709 40.4933L44.5 42.2319L47.9375 44.4668L50.4375 47.1159V49.1026L52 51.586L51.2709 52" stroke="white" stroke-width="4"/>
</svg>
