<svg width="56" height="40" viewBox="0 0 56 40" fill="none" xmlns="http://www.w3.org/2000/svg">
<path d="M55.4421 10.4298C55.4421 10.4298 54.8953 6.86513 53.211 5.29991C51.0782 3.23988 48.6937 3.22979 47.6 3.10861C39.7687 2.5835 28.011 2.5835 28.011 2.5835H27.989C27.989 2.5835 16.2313 2.5835 8.4 3.10861C7.30624 3.22979 4.92188 3.23988 2.78907 5.29991C1.10469 6.86513 0.568749 10.4298 0.568749 10.4298C0.568749 10.4298 0 14.6205 0 18.8011V22.7193C0 26.9 0.557812 31.0908 0.557812 31.0908C0.557812 31.0908 1.10469 34.6553 2.77812 36.2206C4.91093 38.2806 7.71093 38.21 8.95782 38.432C13.4422 38.826 28 38.9471 28 38.9471C28 38.9471 39.7687 38.9269 47.6 38.4119C48.6937 38.2908 51.0782 38.2806 53.211 36.2206C54.8953 34.6553 55.4421 31.0908 55.4421 31.0908C55.4421 31.0908 56 26.91 56 22.7193V18.8011C56 14.6205 55.4421 10.4298 55.4421 10.4298ZM22.214 27.4755V12.9443L37.3406 20.2351L22.214 27.4755Z" fill="#131313"/>
</svg>
